<?xml version="1.0" encoding="UTF-8" standalone="no"?>
<!DOCTYPE svg PUBLIC "-//W3C//DTD SVG 1.1//EN" "http://www.w3.org/Graphics/SVG/1.1/DTD/svg11.dtd">
<svg width="100%" height="100%" viewBox="0 0 278 48" version="1.1" xmlns="http://www.w3.org/2000/svg" xmlns:xlink="http://www.w3.org/1999/xlink" xml:space="preserve" xmlns:serif="http://www.serif.com/" style="fill-rule:evenodd;clip-rule:evenodd;stroke-linejoin:round;stroke-miterlimit:2;">
    <g transform="matrix(1,0,0,1,-433.386,-112.586)">
        <g id="Logo" transform="matrix(0.394819,0,0,0.158828,238.588,173.215)">
            <rect x="493.386" y="-381.724" width="703.431" height="296.731" style="fill:none;"/>
            <g transform="matrix(6.64363,0,0,13.3187,-2014.12,-776.337)">
                <path d="M387.769,46.111c0.261,-0 0.392,0.12 0.392,0.36c-0,0.108 -0.056,0.204 -0.167,0.288c-0.112,0.084 -0.3,0.126 -0.566,0.126l-6.759,-0l4.297,-8.957l-2.185,-0c-0.319,-0 -0.564,0.018 -0.733,0.054c-0.228,0.048 -0.39,0.072 -0.487,0.072c-0.096,-0 -0.177,-0.035 -0.243,-0.104c-0.065,-0.069 -0.098,-0.154 -0.098,-0.256c0,-0.283 0.24,-0.424 0.719,-0.424l6.287,0l-4.022,8.958l2.389,-0c0.353,-0 0.605,-0.018 0.755,-0.054c0.179,-0.042 0.319,-0.063 0.421,-0.063Z" style="fill:white;fill-rule:nonzero;"/>
                <path d="M389.809,34.147l3.118,-0c0.772,-0 1.24,0.003 1.405,0.009c0.716,0.042 1.222,0.145 1.517,0.31c0.295,0.165 0.53,0.35 0.704,0.554c0.373,0.456 0.559,1.008 0.559,1.656c0,0.642 -0.181,1.207 -0.544,1.693c-0.112,0.15 -0.24,0.279 -0.385,0.387c0.789,0.18 1.435,0.591 1.938,1.233c0.547,0.696 0.821,1.545 0.821,2.548c-0,1.02 -0.254,1.899 -0.763,2.637c-0.711,1.021 -1.81,1.579 -3.296,1.675c-0.377,0.024 -0.75,0.036 -1.118,0.036l-3.956,-0l-0,-12.738Zm4.762,4.429l0.371,0.054l0.116,-0c0.382,-0 0.714,-0.174 0.994,-0.522c0.3,-0.372 0.45,-0.829 0.45,-1.369c0,-0.66 -0.23,-1.167 -0.689,-1.521c-0.233,-0.18 -0.464,-0.287 -0.694,-0.32c-0.23,-0.033 -0.41,-0.055 -0.54,-0.067c-0.272,-0.024 -0.627,-0.036 -1.068,-0.036l0,11.424l0.806,-0c0.823,-0 1.493,-0.126 2.011,-0.379c0.62,-0.264 1.111,-0.69 1.474,-1.278c0.344,-0.558 0.515,-1.143 0.515,-1.755c0,-0.612 -0.072,-1.129 -0.217,-1.549c-0.146,-0.42 -0.356,-0.777 -0.632,-1.071c-0.561,-0.606 -1.343,-0.909 -2.345,-0.909l-0.501,0.054c-0.155,-0 -0.269,-0.039 -0.341,-0.117c-0.073,-0.078 -0.109,-0.168 -0.109,-0.27c-0,-0.246 0.133,-0.369 0.399,-0.369Z" style="fill:rgb(221,19,123);fill-rule:nonzero;"/>
                <path d="M400.023,42.024c0,-0.721 0.106,-1.376 0.316,-1.967c0.211,-0.592 0.5,-1.106 0.868,-1.544c0.794,-0.936 1.791,-1.405 2.991,-1.405c1.224,0 2.221,0.487 2.991,1.459c0.736,0.918 1.103,2.079 1.103,3.484c0,1.41 -0.377,2.589 -1.132,3.537c-0.779,0.979 -1.776,1.468 -2.991,1.468c-1.186,-0 -2.168,-0.465 -2.948,-1.396c-0.798,-0.96 -1.198,-2.172 -1.198,-3.636Zm3.943,4.357c0.038,0.006 0.077,0.009 0.116,0.009l0.101,-0c0.978,-0 1.798,-0.375 2.461,-1.126c0.707,-0.81 1.06,-1.872 1.06,-3.186c0,-1.285 -0.331,-2.326 -0.994,-3.124c-0.654,-0.792 -1.498,-1.188 -2.534,-1.188l-0.109,-0c-0.034,-0 -0.068,0.003 -0.101,0.009l-0,8.606Z" style="fill:white;fill-rule:nonzero;"/>
                <path d="M409.483,42.024c0,-0.721 0.105,-1.376 0.316,-1.967c0.21,-0.592 0.5,-1.106 0.867,-1.544c0.794,-0.936 1.791,-1.405 2.992,-1.405c1.224,0 2.221,0.487 2.991,1.459c0.735,0.918 1.103,2.079 1.103,3.484c0,1.41 -0.377,2.589 -1.132,3.537c-0.78,0.979 -1.777,1.468 -2.991,1.468c-1.186,-0 -2.169,-0.465 -2.948,-1.396c-0.799,-0.96 -1.198,-2.172 -1.198,-3.636Zm3.942,4.357c0.039,0.006 0.078,0.009 0.116,0.009l0.102,-0c0.978,-0 1.798,-0.375 2.461,-1.126c0.707,-0.81 1.06,-1.872 1.06,-3.186c0,-1.285 -0.331,-2.326 -0.995,-3.124c-0.653,-0.792 -1.497,-1.188 -2.533,-1.188l-0.109,-0c-0.034,-0 -0.068,0.003 -0.102,0.009l0,8.606Z" style="fill:white;fill-rule:nonzero;"/>
                <path d="M428.018,39.755c0.009,0.144 0.014,0.288 0.014,0.432l0,6.698l-3.114,-0l-0,-8.732c-0.054,-0.03 -0.117,-0.045 -0.189,-0.045l-0.232,-0c-0.378,-0 -0.818,0.321 -1.322,0.963c-0.155,0.198 -0.302,0.417 -0.443,0.657l0,7.157l-3.121,-0l-0,-9.615l3.121,0l0,1.45c0.818,-1.074 1.733,-1.612 2.745,-1.612c1.306,0 2.112,0.601 2.417,1.801c0.416,-0.594 0.875,-1.043 1.376,-1.346c0.501,-0.303 1.005,-0.455 1.514,-0.455c0.866,0 1.507,0.255 1.924,0.766c0.416,0.51 0.624,1.281 0.624,2.313l-0,6.698l-3.115,-0l0,-8.741c-0.043,-0.024 -0.152,-0.036 -0.326,-0.036c-0.175,-0 -0.335,0.04 -0.483,0.121c-0.148,0.081 -0.299,0.194 -0.454,0.338c-0.339,0.306 -0.651,0.702 -0.936,1.188Z" style="fill:white;fill-rule:nonzero;"/>
                <path d="M434.82,47.02c-0.092,-0.012 -0.162,-0.063 -0.21,-0.153c-0.049,-0.09 -0.068,-0.189 -0.058,-0.297c0.024,-0.186 0.07,-0.357 0.137,-0.513c0.068,-0.157 0.118,-0.274 0.149,-0.352c0.032,-0.078 0.064,-0.165 0.098,-0.261l0.276,-0.792l2.984,-11.081l3.209,7.687l3.114,-7.687l3.725,13.314l-3.899,-0l-1.8,-6.878l-2.788,7.202l-2.933,-6.482l-1.016,3.934c-0.16,0.438 -0.274,0.81 -0.342,1.116c-0.067,0.307 -0.123,0.544 -0.167,0.712c-0.096,0.378 -0.256,0.555 -0.479,0.531Z" style="fill:rgb(221,19,123);fill-rule:nonzero;"/>
                <path d="M452.208,47.056c-1.699,-0 -2.549,-1.029 -2.549,-3.088l0,-6.698l3.108,0l-0,8.814c0.048,0.03 0.109,0.045 0.181,0.045l0.24,-0c0.387,-0 0.847,-0.325 1.379,-0.973c0.16,-0.198 0.31,-0.414 0.45,-0.648l0,-7.238l3.122,0l-0,9.615l-3.122,-0l0,-1.387c-0.789,1.039 -1.725,1.558 -2.809,1.558Z" style="fill:white;fill-rule:nonzero;"/>
                <path d="M459.947,45.678c-0,-0.09 0.025,-0.172 0.076,-0.247c0.051,-0.075 0.117,-0.113 0.2,-0.113c0.082,0 0.15,0.03 0.203,0.09c-0,0 0.06,0.069 0.181,0.207c0.504,0.547 1.208,0.82 2.113,0.82c0.61,-0 1.002,-0.156 1.176,-0.468c0.048,-0.085 0.073,-0.17 0.073,-0.257c-0,-0.087 -0.014,-0.171 -0.04,-0.252c-0.027,-0.081 -0.084,-0.18 -0.171,-0.297c-0.087,-0.117 -0.21,-0.257 -0.37,-0.419l-0.639,-0.639c-1.055,-1.02 -1.779,-1.848 -2.171,-2.485c-0.358,-0.582 -0.537,-1.176 -0.537,-1.782c0,-0.762 0.283,-1.401 0.849,-1.917c0.586,-0.541 1.344,-0.811 2.273,-0.811c0.653,0 1.169,0.093 1.546,0.279c0.378,0.187 0.644,0.356 0.799,0.509c0.155,0.153 0.232,0.293 0.232,0.419c0,0.258 -0.082,0.387 -0.247,0.387c-0.077,-0 -0.149,-0.035 -0.214,-0.104c-0.065,-0.069 -0.195,-0.186 -0.388,-0.351c-0.194,-0.165 -0.45,-0.295 -0.77,-0.391c-0.319,-0.096 -0.617,-0.144 -0.893,-0.144c-0.276,-0 -0.471,0.054 -0.584,0.162c-0.114,0.108 -0.171,0.214 -0.171,0.319c0,0.105 0.017,0.204 0.051,0.297c0.034,0.093 0.097,0.203 0.189,0.329c0.213,0.312 0.554,0.681 1.023,1.107c0.47,0.426 0.867,0.816 1.191,1.17c0.324,0.354 0.578,0.682 0.762,0.982c0.334,0.54 0.501,1.086 0.501,1.638c0,0.552 -0.082,1.025 -0.247,1.418c-0.164,0.393 -0.399,0.73 -0.704,1.013c-0.644,0.606 -1.503,0.909 -2.577,0.909c-0.862,-0 -1.58,-0.204 -2.156,-0.612c-0.373,-0.258 -0.559,-0.514 -0.559,-0.766Z" style="fill:white;fill-rule:nonzero;"/>
                <path d="M469.464,35.695c-0.498,0 -0.888,-0.138 -1.168,-0.414c-0.281,-0.276 -0.421,-0.639 -0.421,-1.089c-0,-0.378 0.154,-0.702 0.464,-0.973c0.329,-0.288 0.678,-0.432 1.046,-0.432c0.367,0 0.652,0.045 0.853,0.135c0.2,0.09 0.371,0.207 0.511,0.352c0.281,0.294 0.422,0.636 0.422,1.026c-0,0.39 -0.16,0.72 -0.48,0.99c-0.319,0.27 -0.728,0.405 -1.227,0.405Zm-1.524,1.575l3.122,0l-0,9.615l-3.122,-0l-0,-9.615Z" style="fill:white;fill-rule:nonzero;"/>
                <path d="M476.34,46.309c0.227,0.054 0.456,0.081 0.686,0.081c0.23,-0 0.452,-0.023 0.668,-0.068c0.215,-0.045 0.419,-0.109 0.613,-0.193c0.411,-0.18 0.743,-0.409 0.995,-0.685c0.179,-0.192 0.309,-0.288 0.392,-0.288c0.184,0 0.276,0.102 0.276,0.306c-0,0.204 -0.151,0.447 -0.451,0.73c-0.697,0.576 -1.534,0.864 -2.512,0.864c-1.272,-0 -2.301,-0.474 -3.085,-1.423c-0.77,-0.936 -1.154,-2.151 -1.154,-3.645c-0,-1.417 0.409,-2.587 1.227,-3.511c0.813,-0.912 1.834,-1.369 3.063,-1.369c0.702,0 1.377,0.18 2.026,0.541c0.493,0.264 0.74,0.537 0.74,0.819c0,0.12 -0.028,0.211 -0.083,0.274c-0.056,0.063 -0.118,0.095 -0.185,0.095c-0.102,-0 -0.233,-0.069 -0.392,-0.207c-0.315,-0.372 -0.782,-0.633 -1.401,-0.783c-0.223,-0.054 -0.468,-0.081 -0.734,-0.081c-0.266,-0 -0.496,0.024 -0.689,0.072l-0,8.471Z" style="fill:white;fill-rule:nonzero;"/>
            </g>
        </g>
        <g id="color-palette" serif:id="color palette">
        </g>
    </g>
</svg>
